<mxfile host="app.diagrams.net" agent="Mozilla/5.0 (Windows NT 10.0; Win64; x64) AppleWebKit/537.36 (KHTML, like Gecko) Chrome/134.0.0.0 Safari/537.36" version="26.1.1">
  <diagram name="第 1 页" id="V-Z3Ouj87rjAvePHcmoi">
    <mxGraphModel dx="1050" dy="522" grid="1" gridSize="10" guides="1" tooltips="1" connect="1" arrows="1" fold="1" page="1" pageScale="1" pageWidth="827" pageHeight="1169" math="0" shadow="0">
      <root>
        <mxCell id="0" />
        <mxCell id="1" parent="0" />
        <mxCell id="b7_Y6A8liDHWVlcpCu6--21" style="edgeStyle=orthogonalEdgeStyle;rounded=0;orthogonalLoop=1;jettySize=auto;html=1;fontFamily=Helvetica;fontSize=18;fontColor=light-dark(#00CCCC,#FF9090);fontStyle=1;labelBorderColor=none;labelBackgroundColor=none;autosize=0;" edge="1" parent="1" source="b7_Y6A8liDHWVlcpCu6--1" target="b7_Y6A8liDHWVlcpCu6--16">
          <mxGeometry relative="1" as="geometry" />
        </mxCell>
        <mxCell id="b7_Y6A8liDHWVlcpCu6--1" value="用户请求短链接" style="rounded=1;whiteSpace=wrap;html=1;fontSize=18;textShadow=0;fontStyle=1;comic=1;fillColor=#fff2cc;strokeColor=default;autosize=0;autosizeGrid=1;gradientColor=none;opacity=67;fontColor=light-dark(#00CCCC,#FF9090);labelBackgroundColor=none;labelBorderColor=none;horizontal=1;fontFamily=Helvetica;" vertex="1" parent="1">
          <mxGeometry x="10" y="40" width="170" height="60" as="geometry" />
        </mxCell>
        <mxCell id="b7_Y6A8liDHWVlcpCu6--24" style="edgeStyle=orthogonalEdgeStyle;rounded=0;orthogonalLoop=1;jettySize=auto;html=1;fontFamily=Helvetica;fontSize=18;fontColor=light-dark(#00CCCC,#FF9090);fontStyle=1;labelBorderColor=none;labelBackgroundColor=none;autosize=0;" edge="1" parent="1" source="b7_Y6A8liDHWVlcpCu6--4" target="b7_Y6A8liDHWVlcpCu6--7">
          <mxGeometry relative="1" as="geometry" />
        </mxCell>
        <mxCell id="b7_Y6A8liDHWVlcpCu6--4" value="先查&lt;span style=&quot;color: rgb(10, 130, 110); background-color: rgb(255, 255, 255); font-family: Consolas, &amp;quot;Courier New&amp;quot;, monospace; font-size: 14px; font-weight: normal; white-space: pre;&quot;&gt;ShortLinkGoto表&lt;/span&gt;" style="rounded=1;whiteSpace=wrap;html=1;fontSize=18;textShadow=0;fontStyle=1;comic=1;fillColor=#fff2cc;strokeColor=default;autosize=0;autosizeGrid=1;gradientColor=none;opacity=67;fontColor=light-dark(#00CCCC,#FF9090);labelBackgroundColor=none;labelBorderColor=none;horizontal=1;fontFamily=Helvetica;" vertex="1" parent="1">
          <mxGeometry x="460" y="150" width="170" height="60" as="geometry" />
        </mxCell>
        <mxCell id="b7_Y6A8liDHWVlcpCu6--25" style="edgeStyle=orthogonalEdgeStyle;rounded=0;orthogonalLoop=1;jettySize=auto;html=1;entryX=1;entryY=0.5;entryDx=0;entryDy=0;fontFamily=Helvetica;fontSize=18;fontColor=light-dark(#00CCCC,#FF9090);fontStyle=1;labelBorderColor=none;labelBackgroundColor=none;autosize=0;" edge="1" parent="1" source="b7_Y6A8liDHWVlcpCu6--7" target="b7_Y6A8liDHWVlcpCu6--13">
          <mxGeometry relative="1" as="geometry" />
        </mxCell>
        <mxCell id="b7_Y6A8liDHWVlcpCu6--7" value="&lt;span style=&quot;color: rgb(10, 130, 110); font-family: Consolas, &amp;quot;Courier New&amp;quot;, monospace; font-size: 14px; white-space: pre; background-color: rgb(255, 255, 255);&quot;&gt;ShortLinkGoto&lt;/span&gt;" style="swimlane;fontStyle=0;childLayout=stackLayout;horizontal=1;startSize=30;horizontalStack=0;resizeParent=1;resizeParentMax=0;resizeLast=0;collapsible=1;marginBottom=0;whiteSpace=wrap;html=1;rounded=1;comic=1;opacity=67;strokeColor=default;align=center;verticalAlign=middle;fontFamily=Helvetica;fontSize=18;fontColor=light-dark(#00CCCC,#FF9090);labelBorderColor=none;labelBackgroundColor=none;autosize=0;fillColor=#fff2cc;gradientColor=none;arcSize=17;" vertex="1" parent="1">
          <mxGeometry x="274" y="120" width="140" height="120" as="geometry" />
        </mxCell>
        <mxCell id="b7_Y6A8liDHWVlcpCu6--8" value="id" style="text;strokeColor=none;fillColor=none;align=left;verticalAlign=middle;spacingLeft=4;spacingRight=4;overflow=hidden;points=[[0,0.5],[1,0.5]];portConstraint=eastwest;rotatable=0;whiteSpace=wrap;html=1;fontFamily=Helvetica;fontSize=18;fontColor=light-dark(#00CCCC,#FF9090);fontStyle=1;labelBorderColor=none;labelBackgroundColor=none;autosize=0;" vertex="1" parent="b7_Y6A8liDHWVlcpCu6--7">
          <mxGeometry y="30" width="140" height="30" as="geometry" />
        </mxCell>
        <mxCell id="b7_Y6A8liDHWVlcpCu6--9" value="gid" style="text;strokeColor=none;fillColor=none;align=left;verticalAlign=middle;spacingLeft=4;spacingRight=4;overflow=hidden;points=[[0,0.5],[1,0.5]];portConstraint=eastwest;rotatable=0;whiteSpace=wrap;html=1;fontFamily=Helvetica;fontSize=18;fontColor=light-dark(#00CCCC,#FF9090);fontStyle=1;labelBorderColor=none;labelBackgroundColor=none;autosize=0;" vertex="1" parent="b7_Y6A8liDHWVlcpCu6--7">
          <mxGeometry y="60" width="140" height="30" as="geometry" />
        </mxCell>
        <mxCell id="b7_Y6A8liDHWVlcpCu6--10" value="&lt;div style=&quot;color: #141414;background-color: #ffffff;font-family: Consolas, &#39;Courier New&#39;, monospace;font-weight: normal;font-size: 14px;line-height: 19px;white-space: pre;&quot;&gt;&lt;span style=&quot;color: #0a826e;&quot;&gt;fullShortUrl&lt;/span&gt;&lt;/div&gt;" style="text;strokeColor=none;fillColor=none;align=left;verticalAlign=middle;spacingLeft=4;spacingRight=4;overflow=hidden;points=[[0,0.5],[1,0.5]];portConstraint=eastwest;rotatable=0;whiteSpace=wrap;html=1;fontFamily=Helvetica;fontSize=18;fontColor=light-dark(#00CCCC,#FF9090);fontStyle=1;labelBorderColor=none;labelBackgroundColor=none;autosize=0;" vertex="1" parent="b7_Y6A8liDHWVlcpCu6--7">
          <mxGeometry y="90" width="140" height="30" as="geometry" />
        </mxCell>
        <mxCell id="b7_Y6A8liDHWVlcpCu6--27" style="edgeStyle=orthogonalEdgeStyle;rounded=0;orthogonalLoop=1;jettySize=auto;html=1;entryX=0.5;entryY=0;entryDx=0;entryDy=0;fontFamily=Helvetica;fontSize=18;fontColor=light-dark(#00CCCC,#FF9090);fontStyle=1;labelBorderColor=none;labelBackgroundColor=none;autosize=0;" edge="1" parent="1" source="b7_Y6A8liDHWVlcpCu6--13" target="b7_Y6A8liDHWVlcpCu6--19">
          <mxGeometry relative="1" as="geometry" />
        </mxCell>
        <mxCell id="b7_Y6A8liDHWVlcpCu6--13" value="根据gid（因为是分片键可以直接映射到某张表，不然就要union all）和&lt;span style=&quot;color: rgb(10, 130, 110); font-family: Consolas, &amp;quot;Courier New&amp;quot;, monospace; font-size: 14px; font-weight: 400; text-align: left; white-space: pre; background-color: rgb(255, 255, 255);&quot;&gt;fullShortUrl查询完整短链接表&lt;/span&gt;" style="rounded=1;whiteSpace=wrap;html=1;fontSize=18;textShadow=0;fontStyle=1;comic=1;fillColor=#fff2cc;strokeColor=default;autosize=0;autosizeGrid=1;gradientColor=none;opacity=67;fontColor=light-dark(#00CCCC,#FF9090);labelBackgroundColor=none;labelBorderColor=none;horizontal=1;fontFamily=Helvetica;" vertex="1" parent="1">
          <mxGeometry x="10" y="135" width="210" height="90" as="geometry" />
        </mxCell>
        <mxCell id="b7_Y6A8liDHWVlcpCu6--22" style="edgeStyle=orthogonalEdgeStyle;rounded=0;orthogonalLoop=1;jettySize=auto;html=1;fontFamily=Helvetica;fontSize=18;fontColor=light-dark(#00CCCC,#FF9090);fontStyle=1;labelBorderColor=none;labelBackgroundColor=none;autosize=0;" edge="1" parent="1" source="b7_Y6A8liDHWVlcpCu6--16" target="b7_Y6A8liDHWVlcpCu6--18">
          <mxGeometry relative="1" as="geometry" />
        </mxCell>
        <mxCell id="b7_Y6A8liDHWVlcpCu6--16" value="1.&amp;nbsp;直接查redis&lt;div&gt;2. 查布隆过滤器&lt;/div&gt;&lt;div&gt;3.&amp;nbsp;查空值缓存&lt;/div&gt;" style="rounded=1;whiteSpace=wrap;html=1;fontSize=18;textShadow=0;fontStyle=1;comic=1;fillColor=#fff2cc;strokeColor=default;autosize=0;autosizeGrid=1;gradientColor=none;opacity=67;fontColor=light-dark(#00CCCC,#FF9090);labelBackgroundColor=none;labelBorderColor=none;horizontal=1;fontFamily=Helvetica;" vertex="1" parent="1">
          <mxGeometry x="233.5" y="35" width="180" height="70" as="geometry" />
        </mxCell>
        <mxCell id="b7_Y6A8liDHWVlcpCu6--23" style="edgeStyle=orthogonalEdgeStyle;rounded=0;orthogonalLoop=1;jettySize=auto;html=1;fontFamily=Helvetica;fontSize=18;fontColor=light-dark(#00CCCC,#FF9090);fontStyle=1;labelBorderColor=none;labelBackgroundColor=none;autosize=0;" edge="1" parent="1" source="b7_Y6A8liDHWVlcpCu6--18" target="b7_Y6A8liDHWVlcpCu6--4">
          <mxGeometry relative="1" as="geometry" />
        </mxCell>
        <mxCell id="b7_Y6A8liDHWVlcpCu6--18" value="分布式锁&lt;div&gt;1. 查redis&lt;/div&gt;&lt;div&gt;2. 查空值缓存&lt;/div&gt;" style="rounded=1;whiteSpace=wrap;html=1;fontSize=18;textShadow=0;fontStyle=1;comic=1;fillColor=#fff2cc;strokeColor=default;autosize=0;autosizeGrid=1;gradientColor=none;opacity=67;fontColor=light-dark(#00CCCC,#FF9090);labelBackgroundColor=none;labelBorderColor=none;horizontal=1;fontFamily=Helvetica;" vertex="1" parent="1">
          <mxGeometry x="460" y="40" width="170" height="60" as="geometry" />
        </mxCell>
        <mxCell id="b7_Y6A8liDHWVlcpCu6--28" style="edgeStyle=orthogonalEdgeStyle;rounded=0;orthogonalLoop=1;jettySize=auto;html=1;entryX=0;entryY=0.5;entryDx=0;entryDy=0;fontFamily=Helvetica;fontSize=18;fontColor=light-dark(#00CCCC,#FF9090);fontStyle=1;labelBorderColor=none;labelBackgroundColor=none;autosize=0;" edge="1" parent="1" source="b7_Y6A8liDHWVlcpCu6--19" target="b7_Y6A8liDHWVlcpCu6--20">
          <mxGeometry relative="1" as="geometry" />
        </mxCell>
        <mxCell id="b7_Y6A8liDHWVlcpCu6--19" value="查到了写入缓存" style="rounded=0;whiteSpace=wrap;html=1;comic=1;opacity=67;strokeColor=default;align=center;verticalAlign=middle;fontFamily=Helvetica;fontSize=18;fontColor=light-dark(#00CCCC,#FF9090);fontStyle=1;labelBorderColor=none;labelBackgroundColor=none;autosize=0;fillColor=#fff2cc;gradientColor=none;" vertex="1" parent="1">
          <mxGeometry x="42.5" y="260" width="145" height="50" as="geometry" />
        </mxCell>
        <mxCell id="b7_Y6A8liDHWVlcpCu6--20" value="最后通过消息队列记录日志" style="rounded=0;whiteSpace=wrap;html=1;comic=1;opacity=67;strokeColor=default;align=center;verticalAlign=middle;fontFamily=Helvetica;fontSize=18;fontColor=light-dark(#00CCCC,#FF9090);fontStyle=1;labelBorderColor=none;labelBackgroundColor=none;autosize=0;fillColor=#fff2cc;gradientColor=none;" vertex="1" parent="1">
          <mxGeometry x="240" y="260" width="230" height="50" as="geometry" />
        </mxCell>
        <mxCell id="b7_Y6A8liDHWVlcpCu6--31" style="edgeStyle=orthogonalEdgeStyle;rounded=0;orthogonalLoop=1;jettySize=auto;html=1;entryX=0;entryY=0.5;entryDx=0;entryDy=0;fontFamily=Helvetica;fontSize=18;fontColor=light-dark(#00CCCC,#FF9090);fontStyle=1;labelBorderColor=none;labelBackgroundColor=none;autosize=0;" edge="1" parent="1" source="b7_Y6A8liDHWVlcpCu6--29" target="b7_Y6A8liDHWVlcpCu6--30">
          <mxGeometry relative="1" as="geometry" />
        </mxCell>
        <mxCell id="b7_Y6A8liDHWVlcpCu6--29" value="消息队列消费(记录日志)" style="rounded=0;whiteSpace=wrap;html=1;comic=1;opacity=67;strokeColor=default;align=center;verticalAlign=middle;fontFamily=Helvetica;fontSize=18;fontColor=light-dark(#00CCCC,#FF9090);fontStyle=1;labelBorderColor=none;labelBackgroundColor=none;autosize=0;fillColor=#fff2cc;gradientColor=none;" vertex="1" parent="1">
          <mxGeometry x="42.5" y="375" width="110" height="50" as="geometry" />
        </mxCell>
        <mxCell id="b7_Y6A8liDHWVlcpCu6--33" style="edgeStyle=orthogonalEdgeStyle;rounded=0;orthogonalLoop=1;jettySize=auto;html=1;fontFamily=Helvetica;fontSize=18;fontColor=light-dark(#00CCCC,#FF9090);fontStyle=1;labelBorderColor=none;labelBackgroundColor=none;autosize=0;" edge="1" parent="1" source="b7_Y6A8liDHWVlcpCu6--30" target="b7_Y6A8liDHWVlcpCu6--32">
          <mxGeometry relative="1" as="geometry" />
        </mxCell>
        <mxCell id="b7_Y6A8liDHWVlcpCu6--30" value="幂等性唯一id处理（redis处理）" style="rounded=0;whiteSpace=wrap;html=1;comic=1;opacity=67;strokeColor=default;align=center;verticalAlign=middle;fontFamily=Helvetica;fontSize=18;fontColor=light-dark(#00CCCC,#FF9090);fontStyle=1;labelBorderColor=none;labelBackgroundColor=none;autosize=0;fillColor=#fff2cc;gradientColor=none;" vertex="1" parent="1">
          <mxGeometry x="194.5" y="372.5" width="160" height="55" as="geometry" />
        </mxCell>
        <mxCell id="b7_Y6A8liDHWVlcpCu6--37" style="edgeStyle=orthogonalEdgeStyle;rounded=0;orthogonalLoop=1;jettySize=auto;html=1;entryX=0.5;entryY=0;entryDx=0;entryDy=0;fontFamily=Helvetica;fontSize=18;fontColor=light-dark(#00CCCC,#FF9090);fontStyle=1;labelBorderColor=none;labelBackgroundColor=none;autosize=0;" edge="1" parent="1" source="b7_Y6A8liDHWVlcpCu6--32" target="b7_Y6A8liDHWVlcpCu6--35">
          <mxGeometry relative="1" as="geometry" />
        </mxCell>
        <mxCell id="b7_Y6A8liDHWVlcpCu6--32" value="执行统计数据保存" style="rounded=0;whiteSpace=wrap;html=1;comic=1;opacity=67;strokeColor=default;align=center;verticalAlign=middle;fontFamily=Helvetica;fontSize=18;fontColor=light-dark(#00CCCC,#FF9090);fontStyle=1;labelBorderColor=none;labelBackgroundColor=none;autosize=0;fillColor=#fff2cc;gradientColor=none;" vertex="1" parent="1">
          <mxGeometry x="388.5" y="370" width="120" height="60" as="geometry" />
        </mxCell>
        <mxCell id="b7_Y6A8liDHWVlcpCu6--39" style="edgeStyle=orthogonalEdgeStyle;rounded=0;orthogonalLoop=1;jettySize=auto;html=1;fontFamily=Helvetica;fontSize=18;fontColor=light-dark(#00CCCC,#FF9090);fontStyle=1;labelBorderColor=none;labelBackgroundColor=none;autosize=0;" edge="1" parent="1" source="b7_Y6A8liDHWVlcpCu6--35" target="b7_Y6A8liDHWVlcpCu6--38">
          <mxGeometry relative="1" as="geometry" />
        </mxCell>
        <mxCell id="b7_Y6A8liDHWVlcpCu6--35" value="获取读锁" style="rounded=0;whiteSpace=wrap;html=1;comic=1;opacity=67;strokeColor=default;align=center;verticalAlign=middle;fontFamily=Helvetica;fontSize=18;fontColor=light-dark(#00CCCC,#FF9090);fontStyle=1;labelBorderColor=none;labelBackgroundColor=none;autosize=0;fillColor=#fff2cc;gradientColor=none;" vertex="1" parent="1">
          <mxGeometry x="388.5" y="467.5" width="120" height="60" as="geometry" />
        </mxCell>
        <mxCell id="b7_Y6A8liDHWVlcpCu6--38" value="保存一些统计的各种东西" style="rounded=0;whiteSpace=wrap;html=1;comic=1;opacity=67;strokeColor=default;align=center;verticalAlign=middle;fontFamily=Helvetica;fontSize=18;fontColor=light-dark(#00CCCC,#FF9090);fontStyle=1;labelBorderColor=none;labelBackgroundColor=none;autosize=0;fillColor=#fff2cc;gradientColor=none;" vertex="1" parent="1">
          <mxGeometry x="214.5" y="467.5" width="120" height="60" as="geometry" />
        </mxCell>
        <mxCell id="b7_Y6A8liDHWVlcpCu6--47" style="edgeStyle=orthogonalEdgeStyle;rounded=0;orthogonalLoop=1;jettySize=auto;html=1;entryX=0;entryY=0.5;entryDx=0;entryDy=0;fontFamily=Helvetica;fontSize=18;fontColor=light-dark(#00CCCC,#FF9090);fontStyle=1;labelBorderColor=none;labelBackgroundColor=none;autosize=0;" edge="1" parent="1" source="b7_Y6A8liDHWVlcpCu6--40" target="b7_Y6A8liDHWVlcpCu6--41">
          <mxGeometry relative="1" as="geometry" />
        </mxCell>
        <mxCell id="b7_Y6A8liDHWVlcpCu6--40" value="修改短链接的分组" style="rounded=0;whiteSpace=wrap;html=1;comic=1;opacity=67;strokeColor=default;align=center;verticalAlign=middle;fontFamily=Helvetica;fontSize=18;fontColor=light-dark(#00CCCC,#FF9090);fontStyle=1;labelBorderColor=none;labelBackgroundColor=none;autosize=0;fillColor=#fff2cc;gradientColor=none;" vertex="1" parent="1">
          <mxGeometry x="32.5" y="585" width="120" height="60" as="geometry" />
        </mxCell>
        <mxCell id="b7_Y6A8liDHWVlcpCu6--48" style="edgeStyle=orthogonalEdgeStyle;rounded=0;orthogonalLoop=1;jettySize=auto;html=1;entryX=0;entryY=0.5;entryDx=0;entryDy=0;fontFamily=Helvetica;fontSize=18;fontColor=light-dark(#00CCCC,#FF9090);fontStyle=1;labelBorderColor=none;labelBackgroundColor=none;autosize=0;" edge="1" parent="1" source="b7_Y6A8liDHWVlcpCu6--41" target="b7_Y6A8liDHWVlcpCu6--42">
          <mxGeometry relative="1" as="geometry" />
        </mxCell>
        <mxCell id="b7_Y6A8liDHWVlcpCu6--41" value="获取写锁lock" style="rounded=0;whiteSpace=wrap;html=1;comic=1;opacity=67;strokeColor=default;align=center;verticalAlign=middle;fontFamily=Helvetica;fontSize=18;fontColor=light-dark(#00CCCC,#FF9090);fontStyle=1;labelBorderColor=none;labelBackgroundColor=none;autosize=0;fillColor=#fff2cc;gradientColor=none;" vertex="1" parent="1">
          <mxGeometry x="187.5" y="585" width="120" height="60" as="geometry" />
        </mxCell>
        <mxCell id="b7_Y6A8liDHWVlcpCu6--49" style="edgeStyle=orthogonalEdgeStyle;rounded=0;orthogonalLoop=1;jettySize=auto;html=1;fontFamily=Helvetica;fontSize=18;fontColor=light-dark(#00CCCC,#FF9090);fontStyle=1;labelBorderColor=none;labelBackgroundColor=none;autosize=0;" edge="1" parent="1" source="b7_Y6A8liDHWVlcpCu6--42" target="b7_Y6A8liDHWVlcpCu6--44">
          <mxGeometry relative="1" as="geometry" />
        </mxCell>
        <mxCell id="b7_Y6A8liDHWVlcpCu6--42" value="将原记录删除" style="rounded=0;whiteSpace=wrap;html=1;comic=1;opacity=67;strokeColor=default;align=center;verticalAlign=middle;fontFamily=Helvetica;fontSize=18;fontColor=light-dark(#00CCCC,#FF9090);fontStyle=1;labelBorderColor=none;labelBackgroundColor=none;autosize=0;fillColor=#fff2cc;gradientColor=none;" vertex="1" parent="1">
          <mxGeometry x="340" y="585" width="120" height="60" as="geometry" />
        </mxCell>
        <mxCell id="b7_Y6A8liDHWVlcpCu6--50" style="edgeStyle=orthogonalEdgeStyle;rounded=0;orthogonalLoop=1;jettySize=auto;html=1;fontFamily=Helvetica;fontSize=18;fontColor=light-dark(#00CCCC,#FF9090);fontStyle=1;labelBorderColor=none;labelBackgroundColor=none;autosize=0;" edge="1" parent="1" source="b7_Y6A8liDHWVlcpCu6--44" target="b7_Y6A8liDHWVlcpCu6--45">
          <mxGeometry relative="1" as="geometry" />
        </mxCell>
        <mxCell id="b7_Y6A8liDHWVlcpCu6--44" value="创建新的带分组的记录" style="rounded=0;whiteSpace=wrap;html=1;comic=1;opacity=67;strokeColor=default;align=center;verticalAlign=middle;fontFamily=Helvetica;fontSize=18;fontColor=light-dark(#00CCCC,#FF9090);fontStyle=1;labelBorderColor=none;labelBackgroundColor=none;autosize=0;fillColor=#fff2cc;gradientColor=none;" vertex="1" parent="1">
          <mxGeometry x="340" y="680" width="120" height="60" as="geometry" />
        </mxCell>
        <mxCell id="b7_Y6A8liDHWVlcpCu6--45" value="更新跳转关系表" style="rounded=0;whiteSpace=wrap;html=1;comic=1;opacity=67;strokeColor=default;align=center;verticalAlign=middle;fontFamily=Helvetica;fontSize=18;fontColor=light-dark(#00CCCC,#FF9090);fontStyle=1;labelBorderColor=none;labelBackgroundColor=none;autosize=0;fillColor=#fff2cc;gradientColor=none;" vertex="1" parent="1">
          <mxGeometry x="187.5" y="680" width="120" height="60" as="geometry" />
        </mxCell>
      </root>
    </mxGraphModel>
  </diagram>
</mxfile>
